<svg width="274" height="152" viewBox="0 0 274 152" fill="none" xmlns="http://www.w3.org/2000/svg">
<rect x="1" y="1.10938" width="272" height="150" fill="white"/>
<g clip-path="url(#clip0_66_4680)">
<path d="M96.224 42.7534C94.5707 42.7534 93.264 42.2307 92.304 41.1854C91.3547 40.14 90.88 38.732 90.88 36.9614V36.8334C90.88 35.1374 91.3867 33.74 92.4 32.6414C93.4133 31.5427 94.6987 30.9934 96.256 30.9934C97.504 30.9934 98.56 31.3187 99.424 31.9694C100.288 32.62 100.779 33.5427 100.896 34.7374H99.52C99.232 32.9774 98.1493 32.0974 96.272 32.0974C95.088 32.0974 94.1333 32.5294 93.408 33.3934C92.6827 34.2467 92.32 35.388 92.32 36.8174V36.9454C92.32 38.4067 92.6667 39.5534 93.36 40.3854C94.064 41.2067 95.0293 41.6174 96.256 41.6174C97.2053 41.6174 97.984 41.3827 98.592 40.9134C99.2 40.4334 99.5733 39.7347 99.712 38.8174H101.008C100.816 40.108 100.299 41.0894 99.456 41.7614C98.6133 42.4227 97.536 42.7534 96.224 42.7534ZM103.164 42.6094V30.2414H104.508V42.6094H103.164ZM107.357 42.6094V34.2414H108.685V42.6094H107.357ZM108.605 32.2414C108.435 32.412 108.232 32.4974 107.997 32.4974C107.763 32.4974 107.555 32.412 107.373 32.2414C107.203 32.0707 107.117 31.8627 107.117 31.6174C107.117 31.372 107.203 31.164 107.373 30.9934C107.555 30.8227 107.763 30.7374 107.997 30.7374C108.232 30.7374 108.435 30.8227 108.605 30.9934C108.787 31.164 108.877 31.372 108.877 31.6174C108.877 31.8627 108.787 32.0707 108.605 32.2414ZM114.927 42.7534C113.733 42.7534 112.757 42.3694 111.999 41.6014C111.253 40.8227 110.879 39.7934 110.879 38.5134V38.3854C110.879 37.1267 111.242 36.0974 111.967 35.2974C112.703 34.4974 113.647 34.0974 114.799 34.0974C115.866 34.0974 116.757 34.444 117.471 35.1374C118.197 35.82 118.559 36.86 118.559 38.2574V38.6894H112.255C112.287 39.6494 112.527 40.3854 112.975 40.8974C113.434 41.3987 114.09 41.6494 114.943 41.6494C116.255 41.6494 116.997 41.164 117.167 40.1934H118.495C118.357 41.0147 117.967 41.6494 117.327 42.0974C116.687 42.5347 115.887 42.7534 114.927 42.7534ZM112.303 37.6174H117.199C117.082 36.0067 116.282 35.2014 114.799 35.2014C114.127 35.2014 113.573 35.42 113.135 35.8574C112.698 36.284 112.421 36.8707 112.303 37.6174ZM120.697 42.6094V34.2414H122.025V35.5694C122.228 35.1427 122.564 34.7907 123.033 34.5134C123.502 34.236 124.062 34.0974 124.713 34.0974C125.63 34.0974 126.35 34.3694 126.873 34.9134C127.396 35.4574 127.657 36.3107 127.657 37.4734V42.6094H126.329V37.3774C126.329 36.6414 126.169 36.1027 125.849 35.7614C125.529 35.42 125.033 35.2494 124.361 35.2494C123.71 35.2494 123.156 35.452 122.697 35.8574C122.249 36.2627 122.025 36.8227 122.025 37.5374V42.6094H120.697ZM132.904 42.7214C132.168 42.7214 131.608 42.524 131.224 42.1294C130.84 41.7347 130.648 41.196 130.648 40.5134V35.3614H129.448V34.2414H130.648V32.3374H131.976V34.2414H133.928V35.3614H131.976V40.3854C131.976 41.196 132.322 41.6014 133.016 41.6014C133.4 41.6014 133.741 41.5427 134.04 41.4254V42.5454C133.709 42.6627 133.33 42.7214 132.904 42.7214ZM140.578 42.6094V31.1694H142.386L147.954 40.6254V31.1694H149.282V42.6094H147.682L141.906 32.8014V42.6094H140.578ZM154.256 42.7534C153.434 42.7534 152.762 42.5507 152.24 42.1454C151.728 41.7294 151.472 41.1107 151.472 40.2894C151.472 39.3934 151.866 38.7374 152.656 38.3214C153.456 37.9054 154.458 37.6974 155.664 37.6974H156.864V37.0894C156.864 36.4174 156.725 35.9374 156.448 35.6494C156.17 35.3507 155.712 35.2014 155.072 35.2014C153.92 35.2014 153.28 35.7027 153.152 36.7054H151.824C151.909 35.8094 152.261 35.1534 152.88 34.7374C153.498 34.3107 154.25 34.0974 155.136 34.0974C157.173 34.0974 158.192 35.0947 158.192 37.0894V42.6094H156.864V41.5534C156.224 42.3534 155.354 42.7534 154.256 42.7534ZM154.384 41.6974C155.109 41.6974 155.701 41.5214 156.16 41.1694C156.629 40.8067 156.864 40.3107 156.864 39.6814V38.6414H155.712C153.77 38.6414 152.8 39.1907 152.8 40.2894C152.8 41.228 153.328 41.6974 154.384 41.6974ZM160.9 42.6094V34.2414H162.228V35.5214C162.431 35.1054 162.751 34.764 163.188 34.4974C163.636 34.2307 164.148 34.0974 164.724 34.0974C165.951 34.0974 166.767 34.62 167.172 35.6654C167.439 35.1534 167.839 34.764 168.372 34.4974C168.916 34.2307 169.471 34.0974 170.036 34.0974C170.858 34.0974 171.53 34.3694 172.052 34.9134C172.586 35.4467 172.852 36.284 172.852 37.4254V42.6094H171.524V37.3294C171.524 35.9427 170.932 35.2494 169.748 35.2494C169.151 35.2494 168.634 35.4467 168.196 35.8414C167.759 36.236 167.54 36.7854 167.54 37.4894V42.6094H166.212V37.3294C166.212 35.9427 165.62 35.2494 164.436 35.2494C163.839 35.2494 163.322 35.4467 162.884 35.8414C162.447 36.236 162.228 36.7854 162.228 37.4894V42.6094H160.9ZM178.987 42.7534C177.792 42.7534 176.816 42.3694 176.059 41.6014C175.312 40.8227 174.939 39.7934 174.939 38.5134V38.3854C174.939 37.1267 175.301 36.0974 176.027 35.2974C176.763 34.4974 177.707 34.0974 178.859 34.0974C179.925 34.0974 180.816 34.444 181.531 35.1374C182.256 35.82 182.619 36.86 182.619 38.2574V38.6894H176.315C176.347 39.6494 176.587 40.3854 177.035 40.8974C177.493 41.3987 178.149 41.6494 179.003 41.6494C180.315 41.6494 181.056 41.164 181.227 40.1934H182.555C182.416 41.0147 182.027 41.6494 181.387 42.0974C180.747 42.5347 179.947 42.7534 178.987 42.7534ZM176.363 37.6174H181.259C181.141 36.0067 180.341 35.2014 178.859 35.2014C178.187 35.2014 177.632 35.42 177.195 35.8574C176.757 36.284 176.48 36.8707 176.363 37.6174Z" fill="#374754"/>
</g>
<g clip-path="url(#clip1_66_4680)">
<path d="M227.489 102.111L232.844 105.662C231.106 108.209 226.95 112.577 219.764 112.577C210.841 112.577 204.195 105.709 204.195 96.9721C204.195 87.6747 210.911 81.3672 219.012 81.3672C227.161 81.3672 231.153 87.8146 232.444 91.2953L233.149 93.0709L212.156 101.714C213.753 104.845 216.242 106.433 219.764 106.433C223.286 106.433 225.728 104.705 227.489 102.111ZM211.029 96.4819L225.047 90.6882C224.272 88.7494 221.972 87.3713 219.224 87.3713C215.725 87.3713 210.864 90.4549 211.029 96.4819Z" fill="#FF302F"/>
<path d="M194.074 65.4584H200.837V111.152H194.074V65.458V65.4584Z" fill="#20B15A"/>
<path d="M183.413 82.5816H189.941V110.334C189.941 121.851 183.107 126.593 175.029 126.593C167.421 126.593 162.842 121.501 161.128 117.366L167.116 114.889C168.196 117.436 170.802 120.449 175.029 120.449C180.219 120.449 183.413 117.249 183.413 111.269V109.026H183.178C181.628 110.895 178.669 112.577 174.912 112.577C167.069 112.577 159.883 105.779 159.883 97.0187C159.883 88.2115 167.069 81.3438 174.912 81.3438C178.646 81.3438 181.628 83.0024 183.178 84.8245H183.413V82.582V82.5816ZM183.882 97.0187C183.882 91.5055 180.195 87.4874 175.499 87.4874C170.755 87.4874 166.763 91.5055 166.763 97.0187C166.763 102.461 170.755 106.409 175.499 106.409C180.196 106.433 183.882 102.461 183.882 97.0187H183.882Z" fill="#3686F7"/>
<path d="M122.759 96.902C122.759 105.896 115.715 112.507 107.073 112.507C98.4316 112.507 91.3867 105.873 91.3867 96.902C91.3867 87.8615 98.4316 81.2739 107.073 81.2739C115.715 81.2739 122.759 87.8615 122.759 96.902ZM115.902 96.902C115.902 91.2958 111.816 87.4408 107.073 87.4408C102.33 87.4408 98.2435 91.2958 98.2435 96.902C98.2435 102.462 102.33 106.363 107.073 106.363C111.816 106.363 115.902 102.462 115.902 96.902Z" fill="#FF302F"/>
<path d="M157.017 96.9721C157.017 105.966 149.972 112.577 141.331 112.577C132.689 112.577 125.645 105.966 125.645 96.9721C125.645 87.9316 132.689 81.3672 141.331 81.3672C149.972 81.3672 157.017 87.9083 157.017 96.9721ZM150.136 96.9721C150.136 91.3658 146.051 87.5108 141.307 87.5108C136.564 87.5108 132.478 91.3658 132.478 96.9721C132.478 102.532 136.564 106.433 141.307 106.433C146.074 106.433 150.136 102.509 150.136 96.9721Z" fill="#FFBA40"/>
<path d="M65.6021 105.732C55.7629 105.732 48.061 97.8363 48.061 88.0481C48.061 78.2602 55.7629 70.3642 65.6021 70.3642C70.9092 70.3642 74.7836 72.4432 77.6484 75.1064L82.3686 70.4111C78.3767 66.6033 73.0462 63.7061 65.6021 63.7061C52.1234 63.7064 40.7812 74.6396 40.7812 88.0481C40.7812 101.457 52.1234 112.39 65.6021 112.39C72.8818 112.39 78.3767 110.007 82.6739 105.569C87.0884 101.177 88.4504 95.0096 88.4504 90.0104C88.4504 88.4452 88.2627 86.8334 88.0512 85.6421H65.6021V92.1363H81.5936C81.1239 96.2013 79.8325 98.9812 77.9304 100.873C75.6291 103.186 71.9896 105.732 65.6021 105.732Z" fill="#3686F7"/>
</g>
<rect x="1" y="1.10938" width="272" height="150" stroke="#D8D8D8"/>
<defs>
<clipPath id="clip0_66_4680">
<rect width="94" height="23" fill="white" transform="translate(90 25.6094)"/>
</clipPath>
<clipPath id="clip1_66_4680">
<rect width="193" height="63" fill="white" transform="translate(40.5 63.6094)"/>
</clipPath>
</defs>
</svg>
